Coordinates
version=1
nRows=14
nColumns=24
inDegrees=yes

Units are S.I. units (second, meters, Newtons, ...)
Angles are in degrees.

endheader
time	pelvis_tilt	pelvis_list	pelvis_rotation	pelvis_tx	pelvis_ty	pelvis_tz	hip_flexion_r	hip_adduction_r	hip_rotation_r	knee_angle_r	ankle_angle_r	subtalar_angle_r	mtp_angle_r	hip_flexion_l	hip_adduction_l	hip_rotation_l	knee_angle_l	ankle_angle_l	subtalar_angle_l	mtp_angle_l	lumbar_extension	lumbar_bending	lumbar_rotation
      1.25800000	      1.52992279	      2.33350122	      0.62889041	      0.22820264	      1.04365863	      0.27516036	     16.09611543	     -4.78133529	     -9.81664007	    -62.02177264	     -0.43130440	     -9.27765174	      8.93156290	      4.56872734	      6.71473787	      5.23197291	     -6.12450621	      1.20015639	    -11.78235086	     -4.69719710	    -10.45908872	     -4.36356519	      0.63053366
      1.26216667	      1.47094899	      2.14979069	      0.58619051	      0.23318498	      1.04446047	      0.27488485	     16.65594298	     -4.57843158	     -9.78332094	    -61.46622961	     -0.16871218	     -9.46298312	      8.86311211	      4.15567794	      6.51376070	      5.23215993	     -5.78665159	      1.26251904	    -11.75751483	     -4.72052538	    -10.41983959	     -4.09762343	      0.62297879
      1.26633333	      1.42190520	      1.96011419	      0.55000322	      0.23816327	      1.04525366	      0.27460714	     17.18525778	     -4.36189075	     -9.75094347	    -60.84897339	      0.10020256	     -9.61587210	      6.34712228	      3.70514256	      6.31325123	      5.38325097	     -5.39550553	      1.25123835	    -11.95074610	     -5.59187336	    -10.41005827	     -3.83143814	      0.63046927
      1.27050000	      1.35748378	      1.78110363	      0.49789312	      0.24314680	      1.04597149	      0.27436772	     17.71794360	     -4.14830369	     -9.69517497	    -60.17666345	      0.34255944	     -9.74241720	      6.33534850	      3.31218417	      6.11460314	      5.32153714	     -5.08549635	      1.34008936	    -11.86092199	     -5.59906140	    -10.36627570	     -3.57290658	      0.61660499
      1.27466667	      1.29972996	      1.58381700	      0.45972235	      0.24810722	      1.04668624	      0.27413200	     18.21671848	     -3.90623899	     -9.64337803	    -59.42344837	      0.51064899	     -9.87286266	      6.30538327	      2.91577017	      5.89659020	      5.30784262	     -4.78170484	      1.43772750	    -11.77806101	     -5.61360476	    -10.35036287	     -3.30931474	      0.61554409
      1.27883333	      1.25936400	      1.40494660	      0.41414103	      0.25307990	      1.04737361	      0.27389829	     18.68103019	     -3.68266004	     -9.58413382	    -58.62482435	      0.69465308	     -9.97703062	      6.27642205	      2.49580750	      5.70044572	      5.28140512	     -4.46769714	      1.52488601	    -11.73201975	     -5.62812205	    -10.33110378	     -3.04145356	      0.61143130
      1.28300000	      1.23571013	      1.20481117	      0.38355386	      0.25803358	      1.04807452	      0.27366980	     19.09676265	     -3.42828842	     -9.53188601	    -57.73849341	      0.76463240	    -10.12041929	      6.20067435	      2.05835540	      5.48063497	      5.30920975	     -4.15328796	      1.61670898	    -11.69507609	     -5.66404698	    -10.34990308	     -2.77447375	      0.61617508
      1.28716667	      1.21815593	      1.01149214	      0.34963270	      0.26298575	      1.04873554	      0.27345062	     19.48720921	     -3.17763016	     -9.47233160	    -56.80294500	      0.86650416	    -10.21377452	      6.11222967	      1.61922044	      5.26906138	      5.32258148	     -3.84610138	      1.69292489	    -11.68824142	     -5.70804390	    -10.37559585	     -2.50573118	      0.61217311
      1.29133333	      1.15349903	      0.83611218	      0.31533172	      0.26792508	      1.04925211	      0.27323219	     19.91862619	     -2.94279464	     -9.39535381	    -55.83456204	      0.98652394	    -10.25736779	      6.05231649	      1.24876411	      5.07910950	      5.31735433	     -3.57362613	      1.76591666	    -11.68935799	     -5.73825700	    -10.34317105	     -2.26036430	      0.60257744
      1.29550000	      1.15196018	      0.65385506	      0.29000788	      0.27285375	      1.04984271	      0.27301383	     20.25120870	     -2.69887431	     -9.33059285	    -54.78842425	      1.03777214	    -10.32270557	      5.97917459	      0.80687869	      4.88143595	      5.33814568	     -3.29395297	      1.84518440	    -11.69532752	     -5.77370027	    -10.38772348	     -2.00372548	      0.59621267
      1.29966667	      1.13690988	      0.48599088	      0.26734847	      0.27779640	      1.05035805	      0.27280584	     20.57840362	     -2.46718962	     -9.26350713	    -53.68900583	      1.00567322	    -10.44987688	      5.85148432	      0.36887021	      4.69949222	      5.40504701	     -2.99173641	      1.92479757	    -11.72803280	     -5.83588383	    -10.41384212	     -1.76824613	      0.57936062
      1.30383333	      1.09670470	      0.32263420	      0.24840331	      0.28271509	      1.05078931	      0.27260172	     20.91486416	     -2.23829028	     -9.18874233	    -52.54576576	      1.03087430	    -10.48146319	      5.76191969	     -0.01143569	      4.52353516	      5.42007600	     -2.74862086	      1.99460489	    -11.75676805	     -5.88029904	    -10.41746765	     -1.53152298	      0.56464197
      1.30800000	      1.06764144	      0.17307139	      0.23376487	      0.28763172	      1.05117318	      0.27239030	     21.21825627	     -2.02527450	     -9.11528161	    -51.35034244	      0.99530881	    -10.55034377	      5.66529261	     -0.40649452	      4.36360979	      5.46264094	     -2.49927466	      2.07761871	    -11.79065888	     -5.92646575	    -10.42954679	     -1.31395335	      0.54311675
      1.31216667	      1.07611766	      0.03538387	      0.22666382	      0.29254938	      1.05157365	      0.27218801	     21.45573780	     -1.82374406	     -9.05155943	    -50.09196085	      0.86844887	    -10.69747887	      5.51364209	     -0.85380112	      4.21539881	      5.54509904	     -2.22357836	      2.15601262	    -11.84367620	     -5.99900282	    -10.48066925	     -1.12110323	      0.50602586
